<svg xmlns="http://www.w3.org/2000/svg" width="21.013" height="21.009" viewBox="0 0 21.013 21.009">
  <g id="d04acd384a169baabfd78511af50c146" transform="translate(-9.998 -10.108)">
    <g id="Group_35" data-name="Group 35" transform="translate(9.998 10.108)">
      <path id="Path_9" data-name="Path 9" d="M16.79-501.847a7.85,7.85,0,0,0-4.646,2.3,7.657,7.657,0,0,0-.837,9.6,7.717,7.717,0,0,0,4.794,3.238,6.173,6.173,0,0,0,1.765.127.851.851,0,0,0,.439-1.4c-.185-.213-.386-.279-.94-.312a6.025,6.025,0,0,1-3.037-1.014,7.4,7.4,0,0,1-1.44-1.387,6.246,6.246,0,0,1-1.051-2.352,7.1,7.1,0,0,1,0-2.356,5.973,5.973,0,0,1,4.4-4.588,5.916,5.916,0,0,1,5.5,1.445,5.929,5.929,0,0,1,1.871,4.1c.033.5.094.665.32.862a.843.843,0,0,0,1.383-.46,6.4,6.4,0,0,0-.131-1.72,7.757,7.757,0,0,0-5.167-5.77A8.034,8.034,0,0,0,16.79-501.847Z" transform="translate(-9.998 501.892)" fill="#fff"/>
      <path id="Path_10" data-name="Path 10" d="M146.808-368.959a4.869,4.869,0,0,0-4.211,3.776,4.833,4.833,0,0,0,1.83,4.892,4.127,4.127,0,0,0,2.085.837.867.867,0,0,0,.652-1.248c-.123-.234-.3-.353-.706-.484a3,3,0,0,1-1.933-1.642,2.613,2.613,0,0,1-.3-1.334,2.81,2.81,0,0,1,.349-1.436,3.09,3.09,0,0,1,4.859-.813,3.225,3.225,0,0,1,.9,1.555.875.875,0,0,0,.771.722.636.636,0,0,0,.451-.086c.464-.226.579-.612.382-1.293a4.9,4.9,0,0,0-3.735-3.39A5.426,5.426,0,0,0,146.808-368.959Z" transform="translate(-139.646 371.832)" fill="#fff"/>
      <path id="Path_11" data-name="Path 11" d="M285.827-231.979a.351.351,0,0,0-.2.357c0,.094.845,2.122,2.569,6.168,2.019,4.749,2.59,6.054,2.688,6.14a.379.379,0,0,0,.48.049c.062-.037.6-.62,1.2-1.293s1.1-1.223,1.116-1.227,1.1,1.079,2.4,2.4,2.43,2.438,2.5,2.483a.579.579,0,0,0,.267.082c.123,0,.222-.082,1.01-.874s.874-.886.874-1.005a.594.594,0,0,0-.045-.226c-.025-.049-1.153-1.2-2.5-2.553l-2.458-2.463,1.313-1.149c1.116-.977,1.321-1.174,1.363-1.309a.3.3,0,0,0-.033-.3c-.078-.148-.2-.2-6.152-2.746-3.341-1.428-6.119-2.6-6.177-2.594A.488.488,0,0,0,285.827-231.979Z" transform="translate(-279.72 237.827)" fill="#fff"/>
    </g>
  </g>
</svg>
