<?xml version="1.0"?>
<svg xmlns="http://www.w3.org/2000/svg" viewBox="0 0 24 24">
    <path d="M 4 2 C 2.9 2 2 2.9 2 4 L 2 12 C 2 13.1 2.9 14 4 14 L 10 14 L 10 20 C 10 21.1 10.9 22 12 22 L 20 22 C 21.1 22 22 21.1 22 20 L 22 12 C 22 10.9 21.1 10 20 10 L 14 10 L 14 4 C 14 2.9 13.1 2 12 2 L 4 2 z M 7.1757812 4 L 8.8046875 4 L 11.259766 10.146484 C 10.622151 10.402863 10.149579 10.977115 10.033203 11.671875 L 9.40625 10 L 6.578125 10 L 5.828125 12.015625 L 4 12 L 7.1757812 4 z M 8 6 L 7 9 L 9 9 L 8 6 z M 15.669922 12.001953 C 16.572594 11.966064 17.150391 12.832031 17.150391 12.832031 L 17.150391 13.208984 C 17.150391 13.208984 16.772578 12.832031 16.017578 12.832031 C 15.806578 12.832031 15.297125 13.0155 15.203125 13.5625 C 15.101125 14.1575 16.128531 14.341797 16.394531 14.341797 C 17.149531 14.341797 17.998047 13.984375 17.998047 13.984375 L 17.4375 16 C 17.4375 16 16.757953 15.357375 15.626953 15.734375 C 14.826953 16.001375 14.683703 17.11575 14.845703 17.46875 C 15.625703 19.17275 19 19 19 19 C 19 19 18.015578 20 16.017578 20 C 14.687578 20 13 19.245328 13 17.736328 C 13 16.227328 14.509766 15.472656 14.509766 15.472656 C 14.509766 15.472656 14.119875 14.931375 14.046875 14.734375 C 13.749875 13.937375 14.131672 12.453172 15.263672 12.076172 C 15.405172 12.029047 15.540969 12.00708 15.669922 12.001953 z" fill="#fff"/>
</svg>
