<svg xmlns="http://www.w3.org/2000/svg" xmlns:xlink="http://www.w3.org/1999/xlink" width="251.915" height="170.793" viewBox="0 0 251.915 170.793">
  <defs>
    <linearGradient id="linear-gradient" x1="0.5" x2="0.5" y2="1" gradientUnits="objectBoundingBox">
      <stop offset="0" stop-color="#7461fe"/>
      <stop offset="1" stop-color="#79cced"/>
    </linearGradient>
    <filter id="Intersection_3" x="0" y="0" width="251.915" height="170.793" filterUnits="userSpaceOnUse">
      <feOffset dy="3" input="SourceAlpha"/>
      <feGaussianBlur stdDeviation="3" result="blur"/>
      <feFlood flood-color="#dcdcdc" flood-opacity="0.161"/>
      <feComposite operator="in" in2="blur"/>
      <feComposite in="SourceGraphic"/>
    </filter>
  </defs>
  <g transform="matrix(1, 0, 0, 1, 0, 0)" filter="url(#Intersection_3)">
    <path id="Intersection_3-2" data-name="Intersection 3" d="M42.074,150.329A16.893,16.893,0,0,1,37.4,125.815a16.221,16.221,0,0,1,4.647-4.21,16.849,16.849,0,0,1,22.269,24.483,17.367,17.367,0,0,1-4.679,4.241,16.871,16.871,0,0,1-17.559,0ZM8.047,126.969a16.858,16.858,0,0,1-4.678-24.483,16.2,16.2,0,0,1,4.647-4.21,16.816,16.816,0,0,1,17.528,0,14.728,14.728,0,0,1,4.709,4.148A33.665,33.665,0,0,0,50.22,109.19a33.469,33.469,0,0,0,19.923-6.767,16.2,16.2,0,0,1,4.647-4.21A16.849,16.849,0,0,1,97.059,122.7a17.365,17.365,0,0,1-4.678,4.241A16.853,16.853,0,0,1,70.143,122.7a33.665,33.665,0,0,0-19.772-6.765c0,.009,0,.019,0,.028a33.467,33.467,0,0,0-20.054,6.768,16.9,16.9,0,0,1-22.269,4.242Zm108.043-21.3a16.806,16.806,0,0,1-11.328-5.83q-.339-.4-.654-.811a33.441,33.441,0,0,0-20.054-6.737c0-.009,0-.019,0-.028a33.461,33.461,0,0,0-19.739,6.765,17.239,17.239,0,0,1-4.647,4.242,16.842,16.842,0,1,1,0-28.756,16.227,16.227,0,0,1,4.647,4.21,33.674,33.674,0,0,0,20.054,6.768c0,.02,0,.04,0,.059a33.469,33.469,0,0,0,19.685-6.725l.053-.071a16.206,16.206,0,0,1,4.647-4.21,16.819,16.819,0,0,1,17.528,0,15.217,15.217,0,0,1,4.651,4.1l.059.079a32.774,32.774,0,0,0,39.873.013,15.842,15.842,0,0,1,1.558-1.8,16.4,16.4,0,0,1,3.107-2.428,16.867,16.867,0,0,1,25.326,11.146.018.018,0,0,0,0,.006c0,.015.006.031.009.046l0,.008c0,.014.006.028.008.043a.116.116,0,0,0,0,.014l.007.038s0,.009,0,.014l.007.037c0,.007,0,.012,0,.018l.006.033,0,.024c0,.009,0,.019.005.028s0,.018,0,.027,0,.016,0,.025,0,.02,0,.03a.218.218,0,0,1,0,.022c0,.01,0,.019.005.029s0,.015,0,.022,0,.022.005.032a.151.151,0,0,0,0,.02c0,.012,0,.023,0,.035l0,.017.006.04s0,.008,0,.011l.006.041,0,.011c0,.015.005.032.007.048v0c0,.015,0,.03.007.046a.035.035,0,0,0,0,.007c0,.016,0,.031.007.048,0,0,0,0,0,0a16.793,16.793,0,0,1,.156,1.7q0,.081.006.162c0,.106.006.214.007.32v.028c0,.023,0,.045,0,.067v.053c0,.024,0,.048,0,.073a16.678,16.678,0,0,1-3.369,10.1,17.357,17.357,0,0,1-4.678,4.242,16.852,16.852,0,0,1-22.237-4.242,33.661,33.661,0,0,0-19.772-6.764c0,.009,0,.019,0,.028a33.466,33.466,0,0,0-20.054,6.768,16.834,16.834,0,0,1-13.473,6.706Q116.828,105.729,116.09,105.664Zm25.444-25.79a16.859,16.859,0,0,1-4.678-4.242q-.173-.228-.337-.462a33.689,33.689,0,0,0-19.438-6.314c0-.009,0-.018,0-.027a33.465,33.465,0,0,0-19.62,6.764,17.237,17.237,0,0,1-4.647,4.241,16.766,16.766,0,0,1-7.835,2.439q-.536.034-1.078.034A16.84,16.84,0,0,1,70.455,75.6a33.667,33.667,0,0,0-19.772-6.765c0,.009,0,.019,0,.028a33.466,33.466,0,0,0-20.054,6.768A16.851,16.851,0,0,1,3.68,55.391a16.213,16.213,0,0,1,4.647-4.21,16.817,16.817,0,0,1,17.528,0,14.737,14.737,0,0,1,4.709,4.148A33.671,33.671,0,0,0,50.532,62.1a33.469,33.469,0,0,0,19.923-6.767,16.227,16.227,0,0,1,4.647-4.21,17.022,17.022,0,0,1,17.709-.04,16.206,16.206,0,0,1,4.647,4.21,33.672,33.672,0,0,0,20.054,6.768c0,.009,0,.018,0,.027a33.461,33.461,0,0,0,19.127-6.4q.106-.148.215-.294a16.2,16.2,0,0,1,4.647-4.21,16.97,16.97,0,0,1,22.8,4.563,32.762,32.762,0,0,0,39.328-.415,16.228,16.228,0,0,1,4.647-4.21A16.849,16.849,0,0,1,230.546,75.6a17.371,17.371,0,0,1-4.678,4.241A16.854,16.854,0,0,1,203.63,75.6a33.665,33.665,0,0,0-19.772-6.765c0,.009,0,.019,0,.028a33.459,33.459,0,0,0-19.7,6.5,17.108,17.108,0,0,1-22.627,4.508ZM108.162,55.547a16.858,16.858,0,0,1-4.678-4.242A33.437,33.437,0,0,0,83.43,44.569c0-.01,0-.019,0-.029a33.465,33.465,0,0,0-19.739,6.765,17.231,17.231,0,0,1-4.647,4.242,16.842,16.842,0,1,1,0-28.756A16.221,16.221,0,0,1,63.687,31,33.675,33.675,0,0,0,83.742,37.77l0,.059A33.463,33.463,0,0,0,103.431,31.1l.053-.071a16.215,16.215,0,0,1,4.647-4.21,16.82,16.82,0,0,1,17.528,0,15.2,15.2,0,0,1,4.65,4.1l.059.079a33.673,33.673,0,0,0,19.968,6.767,33.469,33.469,0,0,0,19.906-6.754,15.867,15.867,0,0,1,1.486-1.724,16.4,16.4,0,0,1,3.179-2.5,16.867,16.867,0,0,1,25.306,11.043.026.026,0,0,1,0,.005c0,.016.006.031.009.046l0,.006c0,.015.006.03.009.045a.068.068,0,0,0,0,.011l.008.041s0,.01,0,.014,0,.024.007.036,0,.013,0,.02,0,.022.006.032,0,.013,0,.02,0,.021.006.031,0,.014,0,.022,0,.02.006.03,0,.015,0,.024,0,.019.005.028l0,.027c0,.008,0,.016,0,.025s0,.02.005.03,0,.014,0,.022,0,.019.005.029l0,.022c0,.011,0,.022.005.032s0,.013,0,.02l.006.035c0,.006,0,.011,0,.017l.006.04,0,.011c0,.014,0,.028.007.041v.011c0,.015.005.032.008.048v0c0,.015,0,.03.007.046a.046.046,0,0,0,0,.007c0,.016,0,.031.007.048,0,0,0,0,0,0a16.891,16.891,0,0,1,.156,1.7c0,.054,0,.108.006.162,0,.106.006.214.007.32v.028c0,.023,0,.045,0,.067V41.1c0,.024,0,.048,0,.073a16.678,16.678,0,0,1-3.369,10.105,17.363,17.363,0,0,1-4.678,4.241,16.872,16.872,0,0,1-17.559,0l-.169-.1a16.907,16.907,0,0,1-4.509-4.138,33.667,33.667,0,0,0-19.772-6.765c0,.009,0,.018,0,.028a33.467,33.467,0,0,0-20.054,6.768,16.9,16.9,0,0,1-22.269,4.242ZM75.726,31.22A16.859,16.859,0,0,1,71.048,6.737a16.2,16.2,0,0,1,4.647-4.21,16.817,16.817,0,0,1,17.528,0,14.744,14.744,0,0,1,4.709,4.148A33.67,33.67,0,0,0,117.9,13.441a33.47,33.47,0,0,0,19.923-6.767,16.221,16.221,0,0,1,4.647-4.21,16.849,16.849,0,0,1,22.269,24.483,17.367,17.367,0,0,1-4.679,4.241,16.852,16.852,0,0,1-22.237-4.241,33.666,33.666,0,0,0-19.772-6.765c0,.009,0,.019,0,.028a33.467,33.467,0,0,0-20.054,6.768A16.9,16.9,0,0,1,75.726,31.22Z" transform="translate(9 6)" fill="url(#linear-gradient)"/>
  </g>
</svg>
