<svg xmlns="http://www.w3.org/2000/svg" width="330" height="330" viewBox="0 0 330 330">
  <path id="Path_16" data-name="Path 16" d="M321.318,106.272H277.9V61.525C277.833,27.564,235.1.04,182.37,0H147.634C94.9.04,52.167,27.564,52.1,61.525v44.747H8.686c-4.8,0-8.686,2.5-8.686,5.592V302.033C.027,317.472,19.452,329.982,43.422,330H286.578c23.97-.018,43.395-12.528,43.422-27.967V111.864C330,108.775,326.114,106.272,321.318,106.272Zm-86.844,0H95.526V61.525C95.553,43,118.867,27.984,147.634,27.967H182.37c28.763.018,52.077,15.033,52.1,33.558Z" fill="#fff"/>
</svg>
