<svg id="outline-shopping_cart-24px" xmlns="http://www.w3.org/2000/svg" width="22.99" height="22.99" viewBox="0 0 22.99 22.99">
  <path id="Path_1" data-name="Path 1" d="M0,0H22.99V22.99H0Z" fill="none"/>
  <path id="Path_2" data-name="Path 2" d="M14.937,12.537a1.907,1.907,0,0,0,1.676-.987l3.429-6.217a.954.954,0,0,0-.833-1.418H5.033L4.132,2H1V3.916H2.916l3.448,7.27L5.071,13.524a1.919,1.919,0,0,0,1.676,2.845H18.242V14.453H6.747L7.8,12.537ZM5.943,5.832H17.581l-2.644,4.789H8.213Zm.8,11.495a1.916,1.916,0,1,0,1.916,1.916A1.913,1.913,0,0,0,6.747,17.326Zm9.579,0a1.916,1.916,0,1,0,1.916,1.916A1.913,1.913,0,0,0,16.326,17.326Z" transform="translate(-0.042 -0.084)" fill="#fff"/>
</svg>
