<svg xmlns="http://www.w3.org/2000/svg" width="119.729" height="134.716" viewBox="0 0 119.729 134.716">
  <g id="ab86315aedef5b3d20d13b83f4e38b64" transform="translate(-64.428 -10.2)">
    <path id="Path_17" data-name="Path 17" d="M184.149,133.705c-.1-2.282-.426-4.55-.646-6.819q-.66-6.578-1.32-13.142-.6-5.9-1.169-11.781c-.44-4.358-.88-8.73-1.32-13.087s-.866-8.73-1.306-13.087c-.44-4.427-.894-8.853-1.333-13.266-.192-1.883-.234-3.78-.564-5.636a11.146,11.146,0,0,0-11.08-9.266c-3.492-.014-6.984,0-10.475,0h-.715c0-2.378.069-4.688-.014-6.984a45.877,45.877,0,0,0-.495-5.829A29.871,29.871,0,0,0,130.4,10.832c-1.4-.275-2.832-.426-4.248-.632H122.41c-.165.027-.316.082-.481.1A29.912,29.912,0,0,0,94.475,37.777c-.22,3.038-.1,6.1-.137,9.156v.687h-.77c-3.6,0-7.19-.027-10.792.014A11.06,11.06,0,0,0,72.15,56.583c-.481,2.8-.6,5.65-.894,8.482-.4,3.932-.784,7.85-1.169,11.781-.44,4.4-.88,8.812-1.32,13.211-.426,4.317-.866,8.647-1.292,12.964-.481,4.77-.962,9.554-1.443,14.325-.44,4.44-.894,8.894-1.333,13.335a22.725,22.725,0,0,0-.247,3.849,11.135,11.135,0,0,0,11.2,10.379q48.624.021,97.234,0a11.375,11.375,0,0,0,4.372-.866A11.113,11.113,0,0,0,184.149,133.705ZM101.858,39.619a22.453,22.453,0,0,1,44.472-3.863,17.435,17.435,0,0,1,.385,3.148c.055,2.859.014,5.733.014,8.675H101.885c-.014-.165-.041-.316-.041-.481C101.844,44.6,101.83,42.107,101.858,39.619ZM170.58,137.28a10.562,10.562,0,0,1-1.608.124H79.656a7.357,7.357,0,0,1-7.643-6.571,15.665,15.665,0,0,1,.22-3.657c.509-4.715,1.045-9.417,1.567-14.118L75.49,97.88c.481-4.289.949-8.592,1.43-12.881s.962-8.592,1.43-12.881c.371-3.368.77-6.722,1.059-10.1a7.558,7.558,0,0,1,7.3-6.929c2.406-.027,4.825-.014,7.231-.014.124,0,.247.014.426.027,0,2.749.014,5.444-.014,8.111a.975.975,0,0,1-.454.632A7.492,7.492,0,1,0,104.5,73.96a7.435,7.435,0,0,0-2.131-10.049,1.06,1.06,0,0,1-.522-1c.027-2.571.014-5.155.014-7.781h44.871c.014.179.027.357.027.536,0,2.447-.014,4.908.014,7.355a.924.924,0,0,1-.467.852,7.474,7.474,0,1,0,8.455.041,1.057,1.057,0,0,1-.536-1c.027-2.392.014-4.784.014-7.176v-.66c1.141,0,2.213-.014,3.286,0a50.805,50.805,0,0,1,5.416.137,7.418,7.418,0,0,1,6.269,6.777c.22,2.612.522,5.21.811,7.808.426,3.945.88,7.891,1.32,11.836l1.443,12.95c.44,3.918.866,7.85,1.306,11.768l1.443,12.95c.385,3.464.811,6.929,1.155,10.407A7.468,7.468,0,0,1,170.58,137.28Z"/>
  </g>
</svg>
